Captain Jack Sparrow (Depp) crosses paths with a woman from his past (Cruz), and he's not sure if it's love -- or if she's a ruthless con artist who's using him to find the fabled Fountain of Youth. When she forces him aboard the Queen Anne's Revenge, the ship of the formidable pirate Blackbeard (McShane), Jack finds himself on an unexpected adventure in which he doesn't know who to fear more: Blackbeard or the woman from his past.

Format : Matroska
File size : 7.56 GiB
Duration : 2h 16mn
Overall bit rate : 7 931 Kbps
Encoded date : UTC 2011-09-21 04:22:33
Video #1
ID : 1
Format : AVC
Format/Info : Advanced Video Codec
Format profile : High@L5.1
Format settings, CABAC : Yes
Format settings, ReFrames : 2 frames
Muxing mode : Container profile=Unknown@5.1
Codec ID : V_MPEG4/ISO/AVC
Duration : 2h 16mn
Bit rate : 7 197 Kbps
Width : 1 920 pixels
Height : 1 080 pixels
Display aspect ratio : 16:9
Frame rate : 23.976 fps
Resolution : 24 bits
Colorimetry : 4:2:0
Scan type : Progressive
Bits/(Pixel*Frame) : 0.145
Stream size : 6.85 GiB (91%)
Writing library : x264 core
colour_primaries : BT.709-5, BT.1361, IEC 61966-2-4, SMPTE RP177
transfer_characteristics : BT.709-5, BT.1361
matrix_coefficients : BT.709-5, BT.1361, IEC 61966-2-4 709, SMPTE RP177
Audio #2
ID : 2
Format : AC-3
Format/Info : Audio Coding 3
Codec ID : A_AC3
Duration : 2h 16mn
Bit rate mode : Constant
Bit rate : 448 Kbps
Channel(s) : 6 channels
Channel positions : Front: L C R, Surround: L R, LFE
Sampling rate : 48.0 KHz
Stream size : 437 MiB (6%)
Audio #4
ID : 4
Format : MPEG Audio
Format version : Version 1
Format profile : Layer 3
Codec ID : A_MPEG/L3
Codec ID/Hint : MP3
Duration : 2h 16mn
Bit rate mode : Constant
Bit rate : 128 Kbps
Channel(s) : 2 channels
Sampling rate : 48.0 KHz
Resolution : 16 bits
Stream size : 125 MiB (2%)
Writing library : LAME3.98.2
Language : Hindi
Text #3
ID : 3
Format : VobSub
Codec ID : S_VOBSUB
Codec ID/Info : The same subtitle format used on DVDs


3D MOVIE !!! 